<?xml version="1.0" standalone="no"?><svg xmlns="http://www.w3.org/2000/svg" viewBox="0 0 1440 320"><path fill="#f7fafc" fill-opacity="1" d="M0,32L24,42.7C48,53,96,75,144,112C192,149,240,203,288,224C336,245,384,235,432,202.7C480,171,528,117,576,101.3C624,85,672,107,720,133.3C768,160,816,192,864,192C912,192,960,160,1008,149.3C1056,139,1104,149,1152,165.3C1200,181,1248,203,1296,224C1344,245,1392,267,1416,277.3L1440,288L1440,320L1416,320C1392,320,1344,320,1296,320C1248,320,1200,320,1152,320C1104,320,1056,320,1008,320C960,320,912,320,864,320C816,320,768,320,720,320C672,320,624,320,576,320C528,320,480,320,432,320C384,320,336,320,288,320C240,320,192,320,144,320C96,320,48,320,24,320L0,320Z"></path></svg>